<?xml version="1.0" encoding="utf-8"?>
<!-- Generator: Adobe Illustrator 27.5.0, SVG Export Plug-In . SVG Version: 6.00 Build 0)  -->
<svg version="1.1" id="Layer_1" xmlns="http://www.w3.org/2000/svg" xmlns:xlink="http://www.w3.org/1999/xlink" x="0px" y="0px"
	 viewBox="0 0 243.17 237.548" style="enable-background:new 0 0 243.17 237.548;" xml:space="preserve">
<g>
	<ellipse style="fill:#49C8F5;" cx="135.419" cy="220.744" rx="92.276" ry="13.241"/>
	<ellipse style="fill:#49C8F5;" cx="132.051" cy="220.28" rx="78.892" ry="11.32"/>
	<g>
		<g>
			<g>
				<g>
					<path style="fill:#47B86B;" d="M169.919,223.133c0.824-0.101,1.649-0.196,2.473-0.294c5.913-55.333,2.032-133.246,1.99-134.064
						l-2.424,0.124C172.001,89.717,175.897,167.974,169.919,223.133z"/>
					<path style="fill:#005A27;" d="M170.096,219.658c-2.48-51.465,19.902-169.513,20.129-170.7l2.384,0.452
						c-0.225,1.184-22.556,118.951-20.089,170.131L170.096,219.658z"/>
					<path style="fill:#47B86B;" d="M175.119,222.525c20.308-44.485,37.769-140.896,37.943-141.867l-2.389-0.427
						c-0.174,0.97-17.667,97.567-37.911,141.624l1.637,0.748C174.638,222.576,174.879,222.553,175.119,222.525z"/>
					<g>
						<path style="fill:#CB6157;" d="M190.73,55.305L190.73,55.305c-2.629-0.386-4.463-2.846-4.076-5.466l6.227-42.161
							c0.387-2.621,2.855-4.449,5.484-4.063l0,0c2.629,0.386,4.463,2.846,4.076,5.466l-6.227,42.161
							C195.826,53.862,193.359,55.691,190.73,55.305z"/>
						<g>
							<path style="fill:#CB6157;" d="M197.981,7.88c0.045-1.023-0.103-2.179-1.18-2.621c-0.563-0.231-1.065-0.06-1.409,0.301
								c-1.15,0.443-1.613,2.213-1.868,3.236c-0.363,1.462-0.626,3.031-0.635,4.542c-0.005,0.816,0.078,1.971,0.714,2.574
								c0.768,0.728,1.788-0.216,2.269-0.816C197.444,13.132,197.873,10.319,197.981,7.88z"/>
							<path style="fill:#CB6157;" d="M193.916,20.382c0.341-0.522,0.412-1.184,0.106-1.752c-0.048-0.088-0.181-0.082-0.261-0.067
								c-0.073,0.014-0.147,0.047-0.215,0.088c-0.11,0.036-0.197,0.098-0.285,0.172c-0.354,0.297-0.557,0.801-0.513,1.266
								c-0.032,0.283,0.016,0.571,0.171,0.832c0.077,0.13,0.309,0.07,0.411,0.018c0.066-0.034,0.12-0.081,0.179-0.124
								c0.069-0.036,0.134-0.079,0.183-0.127c0.044-0.044,0.069-0.099,0.108-0.147C193.84,20.49,193.88,20.439,193.916,20.382z"/>
						</g>
					</g>
					<g>
						<path style="fill:#CB6157;" d="M172.559,97.32L172.559,97.32c-2.657-0.042-4.796-2.244-4.754-4.893l0.684-42.61
							c0.042-2.649,2.251-4.781,4.908-4.738l0,0c2.657,0.042,4.796,2.244,4.754,4.893l-0.684,42.61
							C177.425,95.23,175.216,97.363,172.559,97.32z"/>
						<g>
							<path style="fill:#CB6157;" d="M173.574,49.358c-0.088-1.021-0.386-2.147-1.511-2.446c-0.589-0.156-1.064,0.078-1.358,0.481
								c-1.083,0.588-1.311,2.403-1.43,3.45c-0.17,1.496-0.226,3.086-0.038,4.585c0.102,0.81,0.334,1.944,1.043,2.46
								c0.857,0.622,1.745-0.445,2.144-1.103C173.726,54.635,173.785,51.79,173.574,49.358z"/>
							<path style="fill:#CB6157;" d="M171.171,62.281c0.27-0.562,0.254-1.228-0.123-1.751c-0.059-0.081-0.19-0.058-0.268-0.032
								c-0.071,0.023-0.139,0.065-0.202,0.115c-0.104,0.05-0.183,0.122-0.261,0.207c-0.312,0.341-0.448,0.866-0.344,1.321
								c0.005,0.284,0.09,0.565,0.278,0.803c0.094,0.119,0.316,0.03,0.41-0.035c0.061-0.042,0.109-0.096,0.161-0.146
								c0.064-0.045,0.122-0.095,0.164-0.15c0.038-0.049,0.055-0.107,0.088-0.159C171.11,62.398,171.143,62.341,171.171,62.281z"/>
						</g>
					</g>
					<g>
						<path style="fill:#CB6157;" d="M210.646,84.148L210.646,84.148c-2.601-0.543-4.283-3.108-3.739-5.701l8.759-41.712
							c0.544-2.593,3.118-4.27,5.719-3.727l0,0c2.601,0.543,4.283,3.108,3.739,5.701l-8.759,41.711
							C215.82,83.014,213.247,84.691,210.646,84.148z"/>
						<g>
							<path style="fill:#CB6157;" d="M220.745,37.243c0.107-1.019,0.029-2.181-1.02-2.687c-0.549-0.265-1.06-0.124-1.425,0.216
								c-1.175,0.373-1.744,2.112-2.059,3.118c-0.451,1.437-0.808,2.988-0.908,4.495c-0.054,0.815-0.041,1.972,0.558,2.612
								c0.723,0.773,1.798-0.108,2.314-0.679C219.893,42.453,220.49,39.671,220.745,37.243z"/>
							<path style="fill:#CB6157;" d="M215.933,49.48c0.372-0.501,0.482-1.158,0.211-1.743c-0.042-0.091-0.176-0.093-0.257-0.082
								c-0.074,0.009-0.149,0.038-0.22,0.075c-0.112,0.03-0.203,0.085-0.296,0.154c-0.371,0.276-0.604,0.766-0.588,1.232
								c-0.049,0.28-0.019,0.571,0.121,0.841c0.07,0.134,0.304,0.089,0.409,0.042c0.067-0.03,0.125-0.074,0.186-0.113
								c0.071-0.032,0.138-0.07,0.19-0.116c0.047-0.041,0.075-0.095,0.116-0.14C215.851,49.583,215.894,49.534,215.933,49.48z"/>
						</g>
					</g>
				</g>
				<path style="fill:#23974A;" d="M189.852,202.613c3.91-8.348,8.246-16.497,13.048-24.369c4.088-6.702,8.454-13.259,13.243-19.485
					c4.652-6.05,9.702-11.815,15.27-17.046c2.576-2.42,5.276-4.723,8.109-6.844c-10.562,5.24-19.632,12.999-27.423,21.807
					c-9.158,10.353-16.915,21.945-23.319,34.169c-2.079,3.968-4.008,8.014-5.808,12.116c1.518-5.304,2.87-10.658,4.279-15.991
					c1.16-4.388,2.377-8.756,3.413-13.177c0.919-3.922,1.799-7.86,2.588-11.81c0.653-3.267,1.338-7.034,0.201-10.279
					c-0.103,0.253-0.207,0.505-0.307,0.759c-2.183,5.588-3.437,11.467-5.246,17.174c-2.068,6.52-3.55,13.211-5.75,19.693
					c-0.033,0.099-0.088,0.164-0.151,0.215c-1.552,5.093-3.073,10.186-5.004,15.152c-0.842,2.166-1.668,4.302-2.326,6.53
					c-0.284,0.961-0.58,1.923-0.97,2.848c-0.087,0.208-0.185,0.432-0.292,0.658c1.6-7.003,2.945-14.066,3.842-21.194
					c0.962-7.637,1.425-15.346,1.165-23.042c-0.129-3.829-0.438-7.652-0.949-11.449c-0.507-3.768-1.253-7.498-1.994-11.225
					c-0.903-4.543-1.888-9.089-3.152-13.552c-0.538-1.367-1.082-2.731-1.635-4.092c-1.746-4.299-3.71-8.5-6.198-12.428
					c-1.223-1.93-2.607-3.718-3.974-5.544c-1.057-1.412-2.035-2.882-3.091-4.295c-0.038-0.051-0.078-0.101-0.116-0.151
					c2.715,5.061,5.44,10.125,7.021,15.678c2.031,7.133,3.712,14.379,4.772,21.721c1.057,7.323,1.456,14.757,1.552,22.151
					c0.097,7.563-0.236,15.162-1.35,22.65c-0.784,5.271-1.924,10.474-3.172,15.653c-0.229,0.065-0.457,0.207-0.494,0.387
					c-0.432,2.109-1.408,4.049-2.244,6.018c-0.14,0.329-0.27,0.664-0.401,0.997c-0.085,0.066-0.151,0.142-0.168,0.229
					c-0.035,0.178-0.08,0.371-0.126,0.569c-0.13,0.371-0.262,0.741-0.366,1.12c-0.128,0.467-0.238,0.939-0.312,1.418
					c-0.042,0.27-0.227,0.844,0.041,1.052c0.267,0.207,0.655,0.027,0.857-0.183c0.157-0.163,0.206-0.191-0.066-0.07
					c0.091-0.041,0.156-0.091,0.209-0.144c0.241,0.221,0.529,0.395,0.819,0.541c0.863,0.435,1.808,0.737,2.726,1.034
					c3.924,1.268,8.208,1.916,12.312,1.229c1.521-0.255,2.924-0.774,4.184-1.538C185.207,212.992,187.44,207.763,189.852,202.613z"
					/>
				<path style="fill:#6CBB48;" d="M150.604,139.7c3.265,8.033,5.814,16.378,8.005,24.76c2.241,8.574,4.003,17.312,4.845,26.14
					c0.593,6.215,0.763,12.452,0.801,18.692c-0.242,0.138-0.462,0.363-0.453,0.579c0.102,2.519-0.46,5-0.858,7.473
					c-0.066,0.414-0.12,0.831-0.175,1.246c-0.078,0.099-0.132,0.204-0.127,0.308c0.01,0.212,0.014,0.444,0.017,0.683
					c-0.044,0.458-0.089,0.916-0.101,1.376c-0.015,0.567-0.006,1.135,0.044,1.7c0.029,0.319-0.02,1.024,0.343,1.185
					c0.362,0.16,0.752-0.153,0.923-0.448c0.132-0.229,0.18-0.275-0.095-0.06c0.092-0.072,0.152-0.148,0.197-0.222
					c0.337,0.184,0.713,0.301,1.084,0.386c0.28,0.064,0.57,0.093,0.856,0.137c5.699-0.724,11.402-1.418,17.124-1.889
					c1.557-0.705,2.93-1.644,4.087-2.805c0.912-6.595,1.979-13.169,3.272-19.7c2.095-10.589,4.732-21.072,7.977-31.37
					c2.762-8.767,5.882-17.447,9.574-25.87c3.587-8.183,7.707-16.154,12.567-23.662c2.249-3.473,4.671-6.849,7.296-10.055
					c-10.538,8.917-18.668,20.28-25.049,32.48c-7.5,14.338-13.058,29.696-16.898,45.392c-1.247,5.096-2.301,10.237-3.194,15.406
					c0.233-6.458,0.261-12.925,0.362-19.386c0.083-5.315,0.238-10.625,0.17-15.942c-0.06-4.718-0.168-9.443-0.383-14.157
					c-0.178-3.898-0.459-8.374-2.667-11.747c-0.046,0.316-0.094,0.633-0.135,0.949c-0.909,6.967-0.678,14.005-1.129,21.003
					c-0.515,7.995-0.316,16.021-0.992,24.009c-0.01,0.121-0.054,0.211-0.111,0.286c-0.331,6.227-0.626,12.445-1.424,18.635
					c-0.348,2.7-0.685,5.36-0.807,8.079c-0.053,1.172-0.119,2.35-0.301,3.51c-0.041,0.261-0.089,0.544-0.146,0.83
					c-0.152-8.413-0.613-16.823-1.6-25.182c-1.058-8.955-2.703-17.854-5.166-26.535c-1.226-4.318-2.654-8.581-4.305-12.757
					c-1.638-4.144-3.537-8.177-5.43-12.21c-2.306-4.914-4.707-9.809-7.402-14.532c-0.997-1.404-2-2.804-3.012-4.197
					c-3.196-4.401-6.614-8.63-10.551-12.401c-1.934-1.853-4.012-3.499-6.082-5.194c-1.6-1.31-3.126-2.708-4.725-4.02
					c-0.058-0.047-0.117-0.093-0.174-0.14c4.514,4.997,9.039,9.993,12.402,15.867C143.377,123.874,147.33,131.645,150.604,139.7z"/>
			</g>
			<g>
				<path style="fill:#005A27;" d="M56.341,220.832c0.506,0.609,0.98,1.24,1.466,1.862c7.835,2.722,16.413,3.374,24.629,3.774
					c14.844,0.722,29.641,1.119,44.43,0.642c2.58-9.523,6.587-18.625,12.249-26.755c4.005-5.75,9.126-11.628,15.498-14.971
					c-5.16,0.595-10.145,2.39-14.915,4.377c-2.491,1.037-4.934,2.195-7.256,3.572c-1.173,0.695-2.329,1.434-3.43,2.238
					c-0.847,0.617-1.636,1.438-2.599,1.875c3.528-8.919,10.274-16.029,15.024-24.271c0.297-0.516-0.301-0.656-0.688-0.527
					c-5.64,1.885-10.592,5.206-15.668,8.212c-5.14,3.045-9.634,6.742-14.082,10.704c-2.173,1.936-4.374,3.839-6.655,5.646
					c0.063-4.656,2.459-9.251,4.299-13.39c2.484-5.585,4.708-11.282,7.188-16.871c0.275-0.619-0.469-0.686-0.883-0.44
					c-4.694,2.797-8.482,6.849-11.955,11.004c-1.76,2.105-3.553,4.226-5.137,6.467c-1.852,2.621-3.306,5.489-4.713,8.364
					c-1.217,2.487-2.426,4.98-3.834,7.362c-0.294-5.479,1.207-10.952,2.651-16.19c1.8-6.531,3.252-13.148,5.026-19.686
					c0.471-1.735,0.964-3.44,1.592-5.124c0.546-1.466,1.121-2.978,1.091-4.564c-0.011-0.574-0.923-0.199-1.14-0.043
					c-10.974,7.797-16.408,20.585-20.348,32.983c-0.69,2.172-1.341,4.355-1.985,6.541c-0.271-6.284,0.215-12.586,0.082-18.876
					c-0.08-3.754-0.141-7.516,0.192-11.261c0.17-1.908,0.462-3.785,0.867-5.655c0.39-1.797,0.786-3.589,0.841-5.433
					c0.022-0.746-1.227,0.01-1.391,0.231c-3.996,5.38-7.027,11.48-9.299,17.767c-2.395,6.629-3.98,13.661-4.107,20.725
					c-0.044,2.424,0.124,4.849,0.513,7.238c-5.098-6.814-11.532-13.559-19.897-15.598c-0.4-0.097-1.715,0.566-1.104,1.015
					c8.007,5.888,17.129,14.364,17.897,24.886c-7.731-5.007-15.594-9.941-24.34-12.993c-6.814-2.377-14.175-4.32-21.409-4.657
					c-3.756-0.174-7.608,0.163-11.043,1.786c-0.115,0.054-0.244,0.181-0.349,0.319c1.771,0.464,3.527,1.04,5.302,1.362
					c4.319,0.783,8.547,1.651,12.741,2.96c7.228,2.256,14.243,5.42,20.369,9.899C47.353,211.208,52.155,215.794,56.341,220.832z"/>
				<path style="fill:#23974A;" d="M69.193,191.976c7.229,2.256,14.243,5.419,20.369,9.899c5.293,3.872,10.096,8.458,14.281,13.495
					c3.12,3.756,5.862,7.762,8.33,11.932c13.39,0.04,26.763-0.469,40.146-1.986c7.271-0.824,14.529-1.853,21.804-2.683
					c2.567-9.877,6.637-19.331,12.494-27.739c4.005-5.75,9.126-11.628,15.498-14.972c-5.16,0.596-10.145,2.39-14.915,4.377
					c-2.491,1.037-4.934,2.196-7.256,3.573c-1.173,0.695-2.329,1.434-3.431,2.237c-0.846,0.617-1.636,1.438-2.599,1.876
					c3.527-8.919,10.274-16.029,15.024-24.272c0.297-0.515-0.301-0.656-0.688-0.526c-5.64,1.884-10.593,5.205-15.668,8.212
					c-5.14,3.045-9.634,6.742-14.082,10.704c-2.173,1.935-4.373,3.839-6.656,5.645c0.063-4.656,2.459-9.25,4.299-13.389
					c2.484-5.585,4.708-11.282,7.187-16.871c0.275-0.62-0.469-0.686-0.882-0.44c-4.694,2.796-8.482,6.849-11.955,11.004
					c-1.76,2.104-3.553,4.226-5.137,6.467c-1.852,2.621-3.306,5.489-4.713,8.364c-1.217,2.487-2.426,4.98-3.834,7.361
					c-0.294-5.479,1.207-10.951,2.651-16.189c1.8-6.531,3.252-13.148,5.026-19.686c0.471-1.735,0.964-3.44,1.592-5.124
					c0.546-1.466,1.121-2.978,1.091-4.564c-0.011-0.575-0.923-0.199-1.14-0.043c-10.974,7.797-16.408,20.586-20.348,32.983
					c-0.69,2.171-1.341,4.355-1.985,6.541c-0.271-6.284,0.215-12.586,0.082-18.876c-0.08-3.754-0.141-7.514,0.192-11.26
					c0.17-1.908,0.461-3.785,0.867-5.655c0.39-1.796,0.786-3.589,0.841-5.432c0.022-0.746-1.227,0.01-1.391,0.231
					c-3.996,5.381-7.027,11.481-9.298,17.767c-2.395,6.629-3.98,13.661-4.107,20.725c-0.044,2.424,0.124,4.849,0.513,7.237
					c-5.097-6.813-11.532-13.559-19.897-15.597c-0.4-0.098-1.715,0.566-1.104,1.015c8.007,5.887,17.129,14.364,17.898,24.886
					c-7.731-5.007-15.594-9.941-24.341-12.993c-6.814-2.377-14.175-4.321-21.409-4.657c-3.756-0.174-7.608,0.163-11.043,1.786
					c-0.114,0.054-0.244,0.18-0.349,0.319c1.771,0.464,3.527,1.04,5.302,1.361C60.771,189.799,64.999,190.667,69.193,191.976z"/>
				<path style="opacity:0.37;fill:#606060;" d="M103.844,215.371c3.12,3.756,5.862,7.762,8.33,11.932
					c13.39,0.04,26.763-0.469,40.146-1.986c7.271-0.824,14.529-1.853,21.804-2.683c2.567-9.877,6.637-19.331,12.494-27.739
					c4.005-5.75,9.126-11.628,15.498-14.972c-5.16,0.596-10.145,2.39-14.915,4.377c-2.491,1.037-4.934,2.196-7.256,3.573
					c-1.173,0.695-2.329,1.434-3.431,2.237c-0.846,0.617-1.636,1.439-2.599,1.876c2.467-6.237,6.507-11.59,10.338-17.064
					c-6.164,4.028-11.781,8.906-16.927,14.141c-7.302,7.427-13.774,15.606-20.104,23.855c-0.253,0.33-0.923,0.284-1.035-0.163
					c-0.563-2.251-0.724-4.542-0.563-6.854c0.544-7.781,4.518-15.012,4.912-22.785c-6.196,8.577-8.769,19.059-12.859,28.693
					c-0.256,0.602-1.031,0.354-1.156-0.183c-2.359-10.104-0.16-20.323,0.272-30.509c-4.699,9.48-5.546,20.286-9.093,30.202
					c-0.167,0.467-0.991,0.467-1.118-0.03c-1.979-7.776-1.509-15.85-2.703-23.73c-0.059,0.201-0.123,0.4-0.183,0.601
					c-0.007-0.174-0.009-0.349-0.015-0.523c-1.583,3.486-2.187,7.398-2.502,11.181c-0.39,4.687-0.269,9.39-0.253,14.087
					c0.003,0.673-0.876,0.941-1.168,0.288c-2.195-4.907-4.445-10.072-8.163-14.029c1.118,2.578,2.207,5.167,3.077,7.841
					c1.131,3.476,2.096,7.325,1.393,10.986c-0.107,0.555-0.739,0.632-1.09,0.261c-3.353-3.548-7.039-6.78-10.992-9.649
					c-6.753-4.901-14.262-8.688-22.101-11.535c-0.165-0.059-0.332-0.113-0.497-0.172c2.848,1.451,5.594,3.094,8.176,4.982
					C94.856,205.748,99.658,210.334,103.844,215.371z"/>
			</g>
			<path style="fill:#005A27;" d="M143.281,210.721c5.594,1.284,10.129,4.466,14.354,8.207c1.786,1.582,3.496,3.266,4.994,5.124
				c8.219-1.049,16.44-2.117,24.708-2.617c4.146-0.251,8.317-0.424,12.479-0.694c2.723-0.626,5.437-1.29,8.127-2.043
				c1.188-2.214,2.347-4.443,3.815-6.492c1.893-2.64,4.201-4.853,6.797-6.796c2.458-1.841,5.138-3.499,7.991-4.671
				c-1.528-0.402-3.185-0.373-4.737-0.25c-2.227,0.176-4.512,0.488-6.68,1.026c-4.408,1.095-8.41,3.286-12.619,4.927
				c2.535-2.516,5.378-4.716,8.336-6.711c2.287-1.542,4.982-2.6,7.131-4.35c-3.216-0.611-6.644-0.445-9.826-0.161
				c-0.182,0.016-0.358,0.046-0.539,0.066c-0.659,0.232-1.311,0.467-1.948,0.698c-4.653,1.684-9.281,3.346-13.604,5.785
				c-1.895,1.069-3.692,2.288-5.434,3.585c1.716-2.518,3.845-4.742,5.96-6.973c2.335-3.62,4.692-7.225,7.064-10.82
				c-4.241,0.467-8.038,3.052-11.35,5.556c-1.77,1.338-3.57,2.691-5.197,4.2c-1.716,1.592-3.225,3.394-4.589,5.292
				c-1.253,1.744-2.396,3.562-3.544,5.375c0.018-2.183,0.395-4.346,0.885-6.473c0.533-2.315,1.061-4.648,1.666-6.944
				c0.08-0.305,0.172-0.605,0.257-0.907c0.287-2.815,0.623-5.623,0.992-8.428c-1.551,1.633-2.857,3.568-3.992,5.317
				c-1.271,1.958-2.44,3.923-3.259,6.117c-0.926,2.48-1.551,5.058-2.374,7.572c-0.036,0.11-0.094,0.185-0.161,0.243
				c-0.12,0.585-0.252,1.169-0.342,1.76c-0.137,0.891-0.246,1.788-0.295,2.688c-0.035,0.644-0.069,1.278-0.204,1.893
				c-0.836-0.857-1.557-1.817-2.361-2.707c-1.019-1.13-2.191-2.023-3.589-2.641c-3.142-1.388-6.64-1.435-10.016-1.504
				c-0.354-0.007-1.13,0.75-0.531,0.902c2.555,0.648,5.019,1.86,7.116,3.45c1.751,1.327,3.336,3.081,3.921,5.208
				c-3.52-2.008-6.775-4.483-10.915-5.075c-3.838-0.549-7.894-0.138-11.637,0.803c-1.087,0.273-2.159,0.612-3.199,1.027
				C139.056,210.247,141.169,210.236,143.281,210.721z"/>
		</g>
		<g>
			<g>
				<g>
					<path style="fill:#47B86B;" d="M112.142,227.303c-4.729-52.696-17.593-113.937-17.744-114.654l-2.375,0.5
						c0.151,0.714,12.956,61.675,17.683,114.152C110.518,227.307,111.33,227.3,112.142,227.303z"/>
					<path style="fill:#005A27;" d="M110.6,227.301c-7.396-55.609-4.401-155.274-4.367-156.373l-2.426-0.076
						c-0.035,1.099-3.02,100.493,4.347,156.437C108.969,227.298,109.785,227.296,110.6,227.301z"/>
					<path style="fill:#47B86B;" d="M120.05,227.258c9.568-50.29,11.262-127.773,11.28-128.65l-2.427-0.049
						c-0.018,0.878-1.721,78.737-11.331,128.746C118.398,227.298,119.224,227.27,120.05,227.258z"/>
					<g>
						<path style="fill:#CB6157;" d="M105.299,77.043L105.299,77.043c-2.657,0.028-4.854-2.116-4.883-4.764l-0.456-42.613
							c-0.028-2.649,2.122-4.839,4.78-4.867l0,0c2.657-0.028,4.854,2.116,4.883,4.764l0.456,42.613
							C110.107,74.825,107.957,77.015,105.299,77.043z"/>
						<g>
							<path style="fill:#CB6157;" d="M105.03,29.071c-0.116-1.018-0.443-2.136-1.576-2.405c-0.593-0.141-1.062,0.107-1.345,0.517
								c-1.067,0.617-1.247,2.437-1.338,3.487c-0.13,1.5-0.144,3.091,0.084,4.585c0.123,0.807,0.386,1.935,1.109,2.431
								c0.873,0.6,1.732-0.491,2.113-1.16C105.324,34.342,105.306,31.497,105.03,29.071z"/>
							<path style="fill:#CB6157;" d="M102.974,42.053c0.255-0.569,0.221-1.234-0.17-1.747c-0.061-0.08-0.192-0.053-0.269-0.025
								c-0.07,0.025-0.138,0.069-0.198,0.12c-0.103,0.053-0.18,0.127-0.255,0.214c-0.303,0.349-0.425,0.878-0.308,1.33
								c0.013,0.284,0.105,0.562,0.3,0.795c0.097,0.116,0.316,0.021,0.409-0.046c0.059-0.043,0.106-0.099,0.157-0.15
								c0.063-0.046,0.12-0.098,0.161-0.154c0.037-0.05,0.053-0.109,0.083-0.162C102.917,42.172,102.948,42.114,102.974,42.053z"/>
						</g>
					</g>
					<g>
						<path style="fill:#CB6157;" d="M93.936,121.372L93.936,121.372c-2.631,0.372-5.089-1.47-5.462-4.092l-6.001-42.194
							c-0.373-2.623,1.474-5.073,4.105-5.444l0,0c2.631-0.372,5.089,1.47,5.462,4.092l6.001,42.194
							C98.414,118.55,96.567,121,93.936,121.372z"/>
						<g>
							<path style="fill:#CB6157;" d="M87.422,73.84c-0.247-0.994-0.718-2.061-1.876-2.181c-0.606-0.063-1.039,0.243-1.266,0.687
								c-0.977,0.75-0.919,2.578-0.872,3.631c0.066,1.504,0.26,3.083,0.68,4.535c0.227,0.785,0.635,1.868,1.416,2.267
								c0.943,0.481,1.653-0.711,1.944-1.423C88.399,79.029,88.012,76.21,87.422,73.84z"/>
							<path style="fill:#CB6157;" d="M87.074,86.979c0.179-0.597,0.058-1.252-0.396-1.71c-0.071-0.071-0.197-0.028-0.27,0.01
								c-0.066,0.034-0.127,0.086-0.181,0.145c-0.095,0.066-0.162,0.149-0.225,0.245c-0.255,0.385-0.307,0.925-0.132,1.359
								c0.05,0.28,0.177,0.544,0.401,0.75c0.111,0.103,0.316-0.02,0.399-0.099c0.053-0.051,0.092-0.112,0.136-0.169
								c0.056-0.054,0.106-0.113,0.139-0.173c0.03-0.054,0.038-0.115,0.062-0.171C87.033,87.104,87.056,87.043,87.074,86.979z"/>
						</g>
					</g>
					<g>
						<path style="fill:#CB6157;" d="M129.491,102.431L129.491,102.431c-2.654-0.131-4.718-2.403-4.586-5.049l2.115-42.563
							c0.132-2.646,2.411-4.703,5.065-4.572l0,0c2.654,0.131,4.718,2.403,4.587,5.049l-2.115,42.563
							C134.424,100.505,132.145,102.562,129.491,102.431z"/>
						<g>
							<path style="fill:#CB6157;" d="M132.116,54.529c-0.054-1.023-0.314-2.159-1.428-2.495c-0.583-0.176-1.066,0.043-1.373,0.435
								c-1.102,0.552-1.391,2.358-1.546,3.4c-0.22,1.49-0.33,3.077-0.193,4.582c0.074,0.813,0.268,1.954,0.96,2.493
								c0.835,0.651,1.758-0.387,2.179-1.031C132.091,59.809,132.245,56.968,132.116,54.529z"/>
							<path style="fill:#CB6157;" d="M129.281,67.365c0.289-0.552,0.295-1.219-0.064-1.754c-0.056-0.083-0.188-0.064-0.267-0.041
								c-0.071,0.021-0.141,0.061-0.205,0.108c-0.106,0.047-0.187,0.116-0.268,0.198c-0.323,0.33-0.477,0.851-0.388,1.309
								c-0.005,0.285,0.071,0.567,0.251,0.812c0.09,0.122,0.314,0.04,0.411-0.021c0.062-0.04,0.112-0.092,0.166-0.14
								c0.065-0.042,0.126-0.091,0.169-0.144c0.04-0.048,0.059-0.105,0.093-0.156C129.216,67.48,129.251,67.425,129.281,67.365z"/>
						</g>
					</g>
				</g>
				<path style="fill:#23974A;" d="M126.31,227.133c0.399-1.485,0.778-2.975,1.204-4.452c2.554-8.854,5.56-17.579,9.07-26.102
					c2.988-7.256,6.273-14.412,10.027-21.308c3.647-6.7,7.731-13.181,12.412-19.214c2.166-2.791,4.471-5.486,6.937-8.023
					c-9.611,6.82-17.354,15.896-23.67,25.809c-7.423,11.651-13.269,24.31-17.678,37.381c-1.431,4.243-2.703,8.54-3.839,12.871
					c0.669-5.475,1.164-10.974,1.721-16.46c0.458-4.515,0.976-9.02,1.306-13.547c0.293-4.017,0.545-8.043,0.706-12.067
					c0.133-3.329,0.22-7.156-1.413-10.184c-0.062,0.265-0.126,0.531-0.184,0.797c-1.28,5.86-1.597,11.862-2.491,17.78
					c-1.021,6.763-1.436,13.602-2.594,20.347c-0.017,0.102-0.061,0.175-0.115,0.235c-0.735,5.272-1.439,10.539-2.569,15.745
					c-0.041,0.189-0.072,0.376-0.112,0.564C118.792,227.294,122.552,227.249,126.31,227.133z"/>
				<path style="fill:#23974A;" d="M98.015,169.163c2.191,7.069,3.751,14.35,5.004,21.637c1.281,7.454,2.143,15.013,2.216,22.581
					c0.045,4.623-0.19,9.236-0.526,13.844c2.97,0.053,5.939,0.078,8.907,0.078c0.111-3.874,0.155-7.748,0.03-11.623
					c-0.247-7.693-0.998-15.38-2.46-22.941c-0.728-3.762-1.631-7.491-2.731-11.161c-1.091-3.643-2.413-7.211-3.729-10.778
					c-1.603-4.346-3.288-8.684-5.236-12.895c-0.745-1.266-1.497-2.529-2.256-3.787c-2.398-3.974-4.996-7.818-8.07-11.31
					c-1.51-1.715-3.157-3.266-4.794-4.857c-1.265-1.229-2.462-2.529-3.726-3.761c-0.046-0.044-0.092-0.087-0.138-0.131
					c3.475,4.576,6.959,9.154,9.391,14.392C93.022,155.18,95.818,162.076,98.015,169.163z"/>
				<path style="fill:#6CBB48;" d="M63.823,145.364c5.449,6.779,10.571,13.84,15.067,21.286c4.484,7.426,8.308,15.271,11.786,23.21
					c3.557,8.12,6.666,16.476,8.881,25.065c1.045,4.051,1.897,8.144,2.654,12.255c3.52,0.078,7.037,0.117,10.554,0.123
					c-0.9-4.063-1.863-8.112-2.993-12.119c-2.448-8.68-5.467-17.213-9.26-25.404c-1.887-4.075-3.965-8.063-6.251-11.931
					c-2.268-3.838-4.775-7.526-7.277-11.214c-3.048-4.495-6.187-8.957-9.588-13.201c-1.205-1.232-2.415-2.458-3.633-3.677
					c-3.847-3.849-7.885-7.494-12.365-10.606c-2.201-1.528-4.511-2.832-6.821-4.182c-1.786-1.045-3.512-2.188-5.297-3.236
					c-0.064-0.038-0.13-0.073-0.194-0.111C54.329,135.856,59.582,140.087,63.823,145.364z"/>
				<path style="fill:#6CBB48;" d="M110.361,184.55c0.744,7.977,2.198,15.873,2.782,23.868c0.009,0.122-0.021,0.217-0.064,0.3
					c0.648,6.189,1.328,12.363,1.512,18.587c4.254-0.01,8.506-0.074,12.757-0.216c0.028-2.609,0.073-5.217,0.172-7.825
					c0.411-10.785,1.373-21.55,2.964-32.227c1.355-9.089,3.075-18.148,5.403-27.043c2.261-8.641,5.081-17.156,8.706-25.329
					c1.677-3.781,3.54-7.491,5.631-11.067c-9.011,10.448-15.261,22.938-19.652,35.981c-5.161,15.331-8.245,31.364-9.578,47.466
					c-0.433,5.227-0.669,10.47-0.741,15.715c-0.782-6.415-1.767-12.807-2.679-19.205c-0.751-5.263-1.431-10.532-2.33-15.773
					c-0.798-4.651-1.645-9.301-2.596-13.924c-0.787-3.823-1.766-8.201-4.475-11.188c0.004,0.32,0.007,0.64,0.016,0.959
					C108.38,170.652,109.71,177.568,110.361,184.55z"/>
			</g>
		</g>
	</g>
	<g>
		<path style="fill:#49C8F5;" d="M59.468,224.416c1.141,0.669,2.346,1.249,3.569,1.753c1.461,0.603,2.973,1.059,4.51,1.429
			c0.749,0.138,1.5,0.259,2.262,0.318c1.832,0.141,3.664,0.392,5.489,0.609c2.674,0.318,5.363,0.551,8.055,0.745
			c5.632,0.158,11.268-0.06,16.887-0.523c-0.831-0.063-1.66-0.112-2.494-0.184c-1.569-0.136-3.197-0.254-4.77-0.253
			c-1.716,0.001-3.428-0.232-5.148-0.254c-3.332-0.041-6.621-0.429-9.941-0.661c-1.753-0.122-3.522-0.414-5.267-0.623
			c-1.858-0.223-3.69-0.386-5.524-0.769c-2.008-0.419-4.076-0.701-6.01-1.401c-0.895-0.324-1.796-0.633-2.693-0.952
			c-0.071-0.025-0.143-0.049-0.215-0.074C58.595,223.879,59.03,224.16,59.468,224.416z"/>
		<path style="fill:#49C8F5;" d="M209.953,219.879c-0.009-0.023-0.006-0.016-0.012-0.033c-0.029-0.06-0.058-0.121-0.09-0.18
			c-0.064-0.119-0.142-0.228-0.208-0.345c-0.033-0.046-0.034-0.049-0.046-0.066c-0.034-0.04-0.068-0.082-0.103-0.121
			c-0.121-0.134-0.249-0.261-0.383-0.381c-0.036-0.033-0.142-0.112-0.187-0.148c-0.052-0.036-0.106-0.069-0.158-0.104
			c0.116,0.11,0.22,0.231,0.282,0.369c0.249,0.557-0.184,1.155-0.595,1.534c-1.227,1.129-3.108,1.685-4.687,2.061
			c-3.695,0.878-7.461,1.449-11.206,2.066c-7.538,1.242-15.204,1.772-22.806,2.477c-4.013,0.372-8.021,0.363-12.037,0.62
			c2.25,0.47,4.559,0.548,6.868,0.632c1.682,0.061,3.36,0.104,5.038,0.118c4.243-0.396,8.48-0.833,12.722-1.24
			c4.288-0.411,8.521-0.997,12.771-1.695c2.032-0.334,4.055-0.698,6.072-1.113c1.813-0.373,3.659-0.69,5.352-1.472
			c1.289-0.594,2.751-1.423,3.492-2.704C210.004,220.061,209.977,219.97,209.953,219.879z"/>
		<path style="fill:#49C8F5;" d="M131.353,230.436c0.676-0.027,1.352-0.053,2.021-0.123c1.009-0.105,2.021-0.085,3.033-0.17
			c0.27-0.023,0.541-0.025,0.813-0.024c0.93-0.268,1.839-0.622,2.709-1.061c0.004-0.334-0.25-0.554-0.587-0.452
			c-0.476,0.144-0.944,0.113-1.433,0.104c-0.502-0.009-0.994,0.027-1.493,0.077c-0.931,0.093-1.866,0.061-2.799,0.147
			c-1.909,0.175-3.838,0.192-5.748,0.037c-0.114-0.009-0.223,0.033-0.328,0.093C128.656,229.777,129.998,230.212,131.353,230.436z"
			/>
	</g>
</g>
</svg>
